# xmcd
#
# Track frame offsets:
#	150
#	20233
#	46757
#	64888
#	88458
#	108886
#	116780
#	143472
#	166224
#	177760
#	201387
#	214907
#	232725
#
# Disc length: 3391 seconds
#
# Revision: 0
# Processed by: cddbd v1.5.1PL0 Copyright (c) Steve Scherf et al.
# Submitted via: dBpowerAMP V4.0
#
DISCID=b50d3d0d
DTITLE=Scott Gerber - Songs of a Jewish Cowboy
DYEAR=2005
DGENRE=
TTITLE0=Hulyet Kinderlach (Children Raising ma Ruckus) - Mordecai Gebertig
TTITLE1=Dona Dona - Aaron Zeitlen - Shalam Secunda
TTITLE2=Di Grine Kuzine (The Greenhorn Cousin) - J. Leiserowitz - A. Schwartz
TTITLE3=Birobijan Lullaby - Itzik Feffer - R. Boyarshaya
TTITLE4=Deportees (Plane Wreck at Los Gatos) - Woody Guthrie
TTITLE5=Bulbes (Potatoes) - Traditional
TTITLE6=Mayn Rue Plats (Resting Place) - Morris Rosenfekd
TTITLE7=Hey Zhankoye - Traditional
TTITLE8=Joe Hill - Alfred Hayes - Earl Robinson
TTITLE9=Partizaner Lid (Partisan Song) - Hirsh Glik
TTITLE10=Bin Ich Mir a Shnayderl (I'm a Little Tailor) - Traditional
TTITLE11=Dad's Song - Scott Gerber
TTITLE12=Tum Balalayka  - Traditional
EXTD=
EXTT0=
EXTT1=
EXTT2=
EXTT3=
EXTT4=
EXTT5=
EXTT6=
EXTT7=
EXTT8=
EXTT9=
EXTT10=
EXTT11=
EXTT12=
PLAYORDER=
